# xmcd
#
# Track frame offsets:
#	150
#	15070
#	26835
#	41955
#	61967
#	90995
#	108295
#	122000
#	146357
#	167945
#	184872
#	206672
#	230165
#	247702
#	270855
#	293122
#	306367
#
# Disc length: 4362 seconds
#
# Revision: 1
# Processed by: cddbd v1.4PL0 Copyright (c) Steve Scherf et al.
# Submitted via: audiograbber 1.81.03
#
DISCID=e3110811
DTITLE=Varous - Chicago Blues (JSP) - CD 2
DYEAR=1997
DGENRE=Blues
TTITLE0=Jimmy Rogers - Fishing In My Pond
TTITLE1=Jimmy Rogers - Crazy Woman Blues
TTITLE2=Doc Terry - Dr Boogie
TTITLE3=Doc Terry - Things Can't Stay The Same
TTITLE4=Jimmy Dawkins - So Good To Me
TTITLE5=Johnny Big Moose Walker - Swear To Tell The Thruth
TTITLE6=J T Burks - Low Down Dog
TTITLE7=J T Burks - Must I Holler
TTITLE8=J T Burks - From Greenwood Mississippi
TTITLE9=J T Burks - Operator
TTITLE10=Tré - I'm Very Superstitious
TTITLE11=Mojo Buford - Pickin' Rags
TTITLE12=Mojo Buford - Jack Potato Boogie
TTITLE13=Phil Guy - Once A Gambler (Guy)
TTITLE14=Louisiana Red - Leaving Town
TTITLE15=John Lee Granderson - Lonesome Blues
TTITLE16=Louisiana Red - Grease Me Baby
EXTD=
EXTT0=
EXTT1=
EXTT2=
EXTT3=
EXTT4=
EXTT5=
EXTT6=
EXTT7=
EXTT8=
EXTT9=
EXTT10=
EXTT11=
EXTT12=
EXTT13=
EXTT14=
EXTT15=
EXTT16=
PLAYORDER=
